HIERARCHY
ROOT Hips
{
	OFFSET -351.999878 -572.954773 89.312325
	CHANNELS 6 Xposition Yposition Zposition Zrotation Yrotation Xrotation
	JOINT Spine
	{
		OFFSET 0.000000 2.080078 8.814247
		CHANNELS 6 Xposition Yposition Zposition Zrotation Yrotation Xrotation
		JOINT Spine1
		{
			OFFSET 0.000000 0.000000 8.844139
			CHANNELS 6 Xposition Yposition Zposition Zrotation Yrotation Xrotation
			JOINT Spine2
			{
				OFFSET 0.000000 0.000000 11.682266
				CHANNELS 6 Xposition Yposition Zposition Zrotation Yrotation Xrotation
				JOINT Spine3
				{
					OFFSET 0.000000 0.000000 11.746696
					CHANNELS 6 Xposition Yposition Zposition Zrotation Yrotation Xrotation
					JOINT Neck
					{
						OFFSET 0.000000 0.000000 17.658264
						CHANNELS 6 Xposition Yposition Zposition Zrotation Yrotation Xrotation
						JOINT Neck1
						{
							OFFSET 0.000000 0.000000 5.101517
							CHANNELS 6 Xposition Yposition Zposition Zrotation Yrotation Xrotation
							JOINT Head
							{
								OFFSET 0.000000 0.000000 5.101517
								CHANNELS 6 Xposition Yposition Zposition Zrotation Yrotation Xrotation
								JOINT HeadEnd
								{
									OFFSET 0.000000 0.000000 11.655090
									CHANNELS 6 Xposition Yposition Zposition Zrotation Yrotation Xrotation
									End Site
									{
										OFFSET 0.000000 0.000000 0.100006
									}
								}
							}
						}
					}
					JOINT RightShoulder
					{
						OFFSET -2.625397 0.000000 11.175217
						CHANNELS 6 Xposition Yposition Zposition Zrotation Yrotation Xrotation
						JOINT RightArm
						{
							OFFSET 0.000000 0.000000 10.434708
							CHANNELS 6 Xposition Yposition Zposition Zrotation Yrotation Xrotation
							JOINT RightForeArm
							{
								OFFSET 0.000000 0.000000 29.628418
								CHANNELS 6 Xposition Yposition Zposition Zrotation Yrotation Xrotation
								JOINT RightHand
								{
									OFFSET 0.000000 0.000000 22.857605
									CHANNELS 6 Xposition Yposition Zposition Zrotation Yrotation Xrotation
									JOINT RightHandThumb1
									{
										OFFSET -2.867310 -2.944275 3.959564
										CHANNELS 6 Xposition Yposition Zposition Zrotation Yrotation Xrotation
										JOINT RightHandThumb2
										{
											OFFSET 0.000000 0.000000 3.350403
											CHANNELS 6 Xposition Yposition Zposition Zrotation Yrotation Xrotation
											JOINT RightHandThumb3
											{
												OFFSET 0.000000 0.000000 3.756516
												CHANNELS 6 Xposition Yposition Zposition Zrotation Yrotation Xrotation
												JOINT RightHandThumb4
												{
													OFFSET 0.000000 0.000000 3.147339
													CHANNELS 6 Xposition Yposition Zposition Zrotation Yrotation Xrotation
													End Site
													{
														OFFSET 0.000000 0.000000 0.100006
													}
												}
											}
										}
									}
									JOINT RightHandIndex1
									{
										OFFSET -0.086761 -2.345276 10.030899
										CHANNELS 6 Xposition Yposition Zposition Zrotation Yrotation Xrotation
										JOINT RightHandIndex2
										{
											OFFSET 0.000000 0.000000 4.061096
											CHANNELS 6 Xposition Yposition Zposition Zrotation Yrotation Xrotation
											JOINT RightHandIndex3
											{
												OFFSET 0.000000 0.000000 3.248871
												CHANNELS 6 Xposition Yposition Zposition Zrotation Yrotation Xrotation
												JOINT RightHandIndex4
												{
													OFFSET 0.000000 0.000000 2.639709
													CHANNELS 6 Xposition Yposition Zposition Zrotation Yrotation Xrotation
													End Site
													{
														OFFSET 0.000000 0.000000 0.100006
													}
												}
											}
										}
									}
									JOINT RightHandMiddle1
									{
										OFFSET 0.104095 -0.006775 9.502945
										CHANNELS 6 Xposition Yposition Zposition Zrotation Yrotation Xrotation
										JOINT RightHandMiddle2
										{
											OFFSET 0.000000 0.000000 4.568726
											CHANNELS 6 Xposition Yposition Zposition Zrotation Yrotation Xrotation
											JOINT RightHandMiddle3
											{
												OFFSET 0.000000 0.000000 3.654984
												CHANNELS 6 Xposition Yposition Zposition Zrotation Yrotation Xrotation
												JOINT RightHandMiddle4
												{
													OFFSET 0.000000 0.000000 2.741241
													CHANNELS 6 Xposition Yposition Zposition Zrotation Yrotation Xrotation
													End Site
													{
														OFFSET 0.000000 0.000000 0.100006
													}
												}
											}
										}
									}
									JOINT RightHandRing1
									{
										OFFSET 0.086761 2.267456 8.921707
										CHANNELS 6 Xposition Yposition Zposition Zrotation Yrotation Xrotation
										JOINT RightHandRing2
										{
											OFFSET 0.000000 0.000000 4.061096
											CHANNELS 6 Xposition Yposition Zposition Zrotation Yrotation Xrotation
											JOINT RightHandRing3
											{
												OFFSET 0.000000 0.000000 3.654984
												CHANNELS 6 Xposition Yposition Zposition Zrotation Yrotation Xrotation
												JOINT RightHandRing4
												{
													OFFSET 0.000000 0.000000 2.741241
													CHANNELS 6 Xposition Yposition Zposition Zrotation Yrotation Xrotation
													End Site
													{
														OFFSET 0.000000 0.000000 0.100006
													}
												}
											}
										}
									}
									JOINT RightHandPinky1
									{
										OFFSET -0.173492 4.467224 7.976990
										CHANNELS 6 Xposition Yposition Zposition Zrotation Yrotation Xrotation
										JOINT RightHandPinky2
										{
											OFFSET 0.000000 0.000000 3.350403
											CHANNELS 6 Xposition Yposition Zposition Zrotation Yrotation Xrotation
											JOINT RightHandPinky3
											{
												OFFSET 0.000000 0.000000 2.842758
												CHANNELS 6 Xposition Yposition Zposition Zrotation Yrotation Xrotation
												JOINT RightHandPinky4
												{
													OFFSET 0.000000 0.000000 2.639709
													CHANNELS 6 Xposition Yposition Zposition Zrotation Yrotation Xrotation
													End Site
													{
														OFFSET 0.000000 0.000000 0.100006
													}
												}
											}
										}
									}
									JOINT RightForeArmEnd
									{
										OFFSET 0.000000 0.000000 0.000000
										CHANNELS 6 Xposition Yposition Zposition Zrotation Yrotation Xrotation
										End Site
										{
											OFFSET 0.000000 0.000000 0.100006
										}
									}
								}
								JOINT RightArmEnd
								{
									OFFSET 0.000000 0.000000 0.000000
									CHANNELS 6 Xposition Yposition Zposition Zrotation Yrotation Xrotation
									End Site
									{
										OFFSET 0.000000 0.000000 0.100006
									}
								}
							}
						}
					}
					JOINT LeftShoulder
					{
						OFFSET 2.625397 0.000000 11.175217
						CHANNELS 6 Xposition Yposition Zposition Zrotation Yrotation Xrotation
						JOINT LeftArm
						{
							OFFSET 0.000000 0.000000 10.813629
							CHANNELS 6 Xposition Yposition Zposition Zrotation Yrotation Xrotation
							JOINT LeftForeArm
							{
								OFFSET 0.000000 0.000000 28.724777
								CHANNELS 6 Xposition Yposition Zposition Zrotation Yrotation Xrotation
								JOINT LeftHand
								{
									OFFSET 0.644379 0.328857 25.716171
									CHANNELS 6 Xposition Yposition Zposition Zrotation Yrotation Xrotation
									JOINT LeftHandThumb1
									{
										OFFSET 2.867310 -2.944275 3.959564
										CHANNELS 6 Xposition Yposition Zposition Zrotation Yrotation Xrotation
										JOINT LeftHandThumb2
										{
											OFFSET 0.000000 0.000000 3.350403
											CHANNELS 6 Xposition Yposition Zposition Zrotation Yrotation Xrotation
											JOINT LeftHandThumb3
											{
												OFFSET 0.000000 0.000000 3.756516
												CHANNELS 6 Xposition Yposition Zposition Zrotation Yrotation Xrotation
												JOINT LeftHandThumb4
												{
													OFFSET 0.000000 0.000000 3.100006
													CHANNELS 6 Xposition Yposition Zposition Zrotation Yrotation Xrotation
													End Site
													{
														OFFSET 0.000000 0.000000 0.100006
													}
												}
											}
										}
									}
									JOINT LeftHandIndex1
									{
										OFFSET 0.086761 -2.345276 10.030899
										CHANNELS 6 Xposition Yposition Zposition Zrotation Yrotation Xrotation
										JOINT LeftHandIndex2
										{
											OFFSET 0.000000 0.000000 4.061096
											CHANNELS 6 Xposition Yposition Zposition Zrotation Yrotation Xrotation
											JOINT LeftHandIndex3
											{
												OFFSET 0.000000 0.000000 3.248871
												CHANNELS 6 Xposition Yposition Zposition Zrotation Yrotation Xrotation
												JOINT LeftHandIndex4
												{
													OFFSET 0.000000 0.000000 2.639709
													CHANNELS 6 Xposition Yposition Zposition Zrotation Yrotation Xrotation
													End Site
													{
														OFFSET 0.000000 0.000000 0.100006
													}
												}
											}
										}
									}
									JOINT LeftHandMiddle1
									{
										OFFSET -0.104095 -0.006775 9.502945
										CHANNELS 6 Xposition Yposition Zposition Zrotation Yrotation Xrotation
										JOINT LeftHandMiddle2
										{
											OFFSET 0.000000 0.000000 4.568726
											CHANNELS 6 Xposition Yposition Zposition Zrotation Yrotation Xrotation
											JOINT LeftHandMiddle3
											{
												OFFSET 0.000000 0.000000 3.654984
												CHANNELS 6 Xposition Yposition Zposition Zrotation Yrotation Xrotation
												JOINT LeftHandMiddle4
												{
													OFFSET 0.000000 0.000000 2.741241
													CHANNELS 6 Xposition Yposition Zposition Zrotation Yrotation Xrotation
													End Site
													{
														OFFSET 0.000000 0.000000 0.100006
													}
												}
											}
										}
									}
									JOINT LeftHandRing1
									{
										OFFSET -0.086761 2.267456 8.921707
										CHANNELS 6 Xposition Yposition Zposition Zrotation Yrotation Xrotation
										JOINT LeftHandRing2
										{
											OFFSET 0.000000 0.000000 4.061096
											CHANNELS 6 Xposition Yposition Zposition Zrotation Yrotation Xrotation
											JOINT LeftHandRing3
											{
												OFFSET 0.000000 0.000000 3.654984
												CHANNELS 6 Xposition Yposition Zposition Zrotation Yrotation Xrotation
												JOINT LeftHandRing4
												{
													OFFSET 0.000000 0.000000 2.741241
													CHANNELS 6 Xposition Yposition Zposition Zrotation Yrotation Xrotation
													End Site
													{
														OFFSET 0.000000 0.000000 0.100006
													}
												}
											}
										}
									}
									JOINT LeftHandPinky1
									{
										OFFSET 0.173492 4.467224 7.976990
										CHANNELS 6 Xposition Yposition Zposition Zrotation Yrotation Xrotation
										JOINT LeftHandPinky2
										{
											OFFSET 0.000000 0.000000 3.350403
											CHANNELS 6 Xposition Yposition Zposition Zrotation Yrotation Xrotation
											JOINT LeftHandPinky3
											{
												OFFSET 0.000000 0.000000 2.842758
												CHANNELS 6 Xposition Yposition Zposition Zrotation Yrotation Xrotation
												JOINT LeftHandPinky4
												{
													OFFSET 0.000000 0.000000 2.639709
													CHANNELS 6 Xposition Yposition Zposition Zrotation Yrotation Xrotation
													End Site
													{
														OFFSET 0.000000 0.000000 0.100006
													}
												}
											}
										}
									}
									JOINT LeftForeArmEnd
									{
										OFFSET 0.000000 0.000000 0.000000
										CHANNELS 6 Xposition Yposition Zposition Zrotation Yrotation Xrotation
										End Site
										{
											OFFSET 0.000000 0.000000 0.100006
										}
									}
								}
								JOINT LeftArmEnd
								{
									OFFSET 0.000000 0.000000 0.000000
									CHANNELS 6 Xposition Yposition Zposition Zrotation Yrotation Xrotation
									End Site
									{
										OFFSET 0.000000 0.000000 0.100006
									}
								}
							}
						}
					}
				}
			}
		}
	}
	JOINT RightUpLeg
	{
		OFFSET -11.289948 0.000000 0.000000
		CHANNELS 6 Xposition Yposition Zposition Zrotation Yrotation Xrotation
		JOINT RightLeg
		{
			OFFSET 0.000000 0.000000 -38.200329
			CHANNELS 6 Xposition Yposition Zposition Zrotation Yrotation Xrotation
			JOINT RightFoot
			{
				OFFSET 0.000000 0.000000 -39.900856
				CHANNELS 6 Xposition Yposition Zposition Zrotation Yrotation Xrotation
				JOINT RightToeBase
				{
					OFFSET 0.000000 -15.261658 0.000002
					CHANNELS 6 Xposition Yposition Zposition Zrotation Yrotation Xrotation
					JOINT RightToeBaseEnd
					{
						OFFSET 0.000000 -7.370728 0.000000
						CHANNELS 6 Xposition Yposition Zposition Zrotation Yrotation Xrotation
						End Site
						{
							OFFSET 0.000000 0.000000 0.100000
						}
					}
				}
				JOINT RightLegEnd
				{
					OFFSET 0.000000 0.000000 0.000000
					CHANNELS 6 Xposition Yposition Zposition Zrotation Yrotation Xrotation
					End Site
					{
						OFFSET 0.000000 0.000000 0.100000
					}
				}
			}
			JOINT RightUpLegEnd
			{
				OFFSET 0.000000 0.000000 0.000000
				CHANNELS 6 Xposition Yposition Zposition Zrotation Yrotation Xrotation
				End Site
				{
					OFFSET 0.000000 0.000000 0.099998
				}
			}
		}
	}
	JOINT LeftUpLeg
	{
		OFFSET 11.315674 0.000000 0.000000
		CHANNELS 6 Xposition Yposition Zposition Zrotation Yrotation Xrotation
		JOINT LeftLeg
		{
			OFFSET 0.000000 0.000000 -38.200329
			CHANNELS 6 Xposition Yposition Zposition Zrotation Yrotation Xrotation
			JOINT LeftFoot
			{
				OFFSET 0.000000 0.000000 -39.900856
				CHANNELS 6 Xposition Yposition Zposition Zrotation Yrotation Xrotation
				JOINT LeftToeBase
				{
					OFFSET 0.000000 -15.261658 0.000002
					CHANNELS 6 Xposition Yposition Zposition Zrotation Yrotation Xrotation
					JOINT LeftToeBaseEnd
					{
						OFFSET 0.000000 -7.539978 0.000000
						CHANNELS 6 Xposition Yposition Zposition Zrotation Yrotation Xrotation
						End Site
						{
							OFFSET 0.000000 0.000000 0.100000
						}
					}
				}
				JOINT LeftLegEnd
				{
					OFFSET 0.000000 0.000000 0.000000
					CHANNELS 6 Xposition Yposition Zposition Zrotation Yrotation Xrotation
					End Site
					{
						OFFSET 0.000000 0.000000 0.100000
					}
				}
			}
			JOINT LeftUpLegEnd
			{
				OFFSET 0.000000 0.000000 0.000000
				CHANNELS 6 Xposition Yposition Zposition Zrotation Yrotation Xrotation
				End Site
				{
					OFFSET 0.000000 0.000000 0.099998
				}
			}
		}
	}
}
MOTION
Frames: 2
Frame Time: 0.016667
-12.249573 -10.094604 86.006195 15.908511 1.889860 -8.370207 -0.000006 2.080050 8.814258 0.118515 -2.226745 9.988610 -0.000010 -0.000008 8.844138 0.001093 -0.066019 5.649616 -0.000010 0.000010 11.682270 -1.127891 0.725552 8.968619 0.000013 -0.000000 11.746704 -0.150152 0.883749 7.016133 -0.000015 0.000001 17.658245 -3.635977 -11.047537 5.091751 0.000010 0.000044 5.101477 0.494869 -1.083710 -3.248636 -0.000015 0.000006 5.101519 -1.089218 -0.044217 -13.754172 -0.000001 0.000005 11.655088 -0.000001 0.000000 -0.000001 -2.625385 0.000002 11.175228 16.857395 -88.951234 0.785747 0.000008 0.000000 10.434750 -53.061452 -40.085595 58.223674 -0.000008 -0.000015 29.628447 23.982983 0.315451 27.625564 -0.000012 0.000066 22.857597 13.290700 0.588692 -1.541266 -2.867317 -2.944244 3.959518 31.513424 -20.692579 46.493938 -0.000008 -0.000008 3.350365 -20.319437 10.574189 -35.376439 -0.000019 -0.000015 3.756531 -13.413371 8.714997 -24.113156 -0.000002 0.000006 3.147341 -0.000001 0.000002 -0.000001 -0.086761 -2.345265 10.030899 -20.372289 -40.881165 10.932568 0.000003 0.000008 4.061111 -0.714545 -29.605045 4.584383 -0.000003 0.000029 3.248886 -1.214306 -29.605031 4.584126 0.000015 0.000008 2.639723 0.000001 0.000001 0.000003 0.104088 -0.006782 9.502926 -13.225703 -40.132726 7.392807 -0.000003 -0.000010 4.568711 0.073541 -28.833616 1.653983 0.000012 -0.000003 3.655010 -0.426263 -28.833541 1.653868 -0.000015 0.000016 2.741262 -0.000002 0.000001 -0.000000 0.086747 2.267470 8.921700 -3.393591 -43.847134 5.368378 0.000010 -0.000021 4.061096 -0.424220 -30.804262 -2.089828 -0.000021 -0.000016 3.654978 0.575781 -30.804249 -2.089839 0.000006 -0.000002 2.741243 -0.000002 0.000000 0.000002 -0.173485 4.467249 7.976964 8.426203 -45.345571 1.071696 -0.000011 0.000009 3.350403 -0.204273 -30.510756 -6.577543 -0.000016 -0.000004 2.842728 1.795734 -30.510738 -6.577556 -0.000026 0.000013 2.639704 -0.000000 -0.000001 -0.000001 -0.000003 0.000006 -0.000025 -0.000001 -0.000001 0.000000 -0.000000 0.000007 0.000015 -0.000001 0.000000 -0.000000 2.625391 -0.000005 11.175222 -13.020449 86.100859 -0.397162 -0.000015 0.000021 10.813629 46.365175 49.570118 51.678205 -0.000062 -0.000080 28.724775 -6.139231 -0.812617 42.129208 0.644333 0.328821 25.716179 9.125847 -17.448133 -8.931510 2.867213 -2.944366 3.959564 -32.175730 25.238932 40.247911 -0.000008 -0.000046 3.350449 30.377324 -10.847909 -51.439890 -0.000038 -0.000008 3.756493 20.135457 -10.543053 -35.080589 -0.000044 0.000059 3.100017 -0.000000 -0.000002 -0.000001 0.086769 -2.345347 10.030942 4.968449 74.408491 -5.102776 0.000000 0.000006 4.061161 -4.734056 52.560010 -10.576851 0.000002 0.000025 3.248901 -5.234046 52.560010 -10.576856 -0.000053 0.000008 2.639724 -0.000000 -0.000002 -0.000001 -0.104095 -0.006765 9.502960 19.400924 71.437761 13.618759 0.000017 -0.000033 4.568766 -1.268629 50.983093 -3.708437 -0.000022 -0.000050 3.655005 -1.768640 50.983093 -3.712417 -0.000044 -0.000013 2.741243 0.000002 -0.000000 0.000001 -0.086773 2.267412 8.921749 43.420564 69.169039 42.299474 -0.000006 -0.000009 4.061106 1.222707 52.248635 4.530418 -0.000041 -0.000020 3.655045 2.222698 52.248580 4.533422 -0.000038 -0.000007 2.741269 0.000002 -0.000000 -0.000001 0.173516 4.467110 7.976955 50.936573 60.587282 55.078202 -0.000023 0.000011 3.350464 4.084142 49.495707 13.153195 -0.000031 0.000010 2.842819 6.084160 49.495751 13.153204 -0.000033 -0.000008 2.639706 0.000001 0.000002 -0.000002 -0.000007 -0.000077 -0.000018 0.000002 -0.000001 0.000003 -0.000002 0.000009 0.000004 -0.000001 -0.000000 -0.000001 -11.289916 -0.000013 0.000004 -7.617838 -1.944486 -4.323692 0.000037 0.000054 -38.200302 -0.104291 0.058896 28.538940 -0.000015 0.000007 -39.900860 -11.266609 1.013511 9.566600 0.000009 -15.261736 0.000045 1.036878 0.350059 -17.300698 -0.000001 -7.370667 -0.000000 0.000000 -0.000000 -0.000001 0.000000 0.000001 0.000000 -0.000000 -0.000000 -0.000000 0.000021 0.000069 0.000001 -0.000001 0.000000 0.000001 11.315664 0.000004 0.000009 -13.970300 0.428646 -11.705431 -0.000015 0.000023 -38.200340 -0.185637 0.128239 34.636702 0.000021 0.000016 -39.900864 11.241393 -2.153238 9.813608 0.000024 -15.261658 0.000021 0.121764 -0.496233 -21.504203 -0.000002 -7.539974 0.000000 -0.000001 -0.000000 0.000000 -0.000009 -0.000002 0.000000 0.000000 -0.000000 0.000004 0.000000 0.000061 0.000001 0.000000 -0.000000 0.000001 
-12.271088 -10.195557 85.839645 16.579827 2.035886 -8.738036 -0.000006 2.080083 8.814254 0.133794 -2.308667 10.050065 -0.000010 0.000019 8.844143 -0.032704 -0.012380 5.614557 -0.000007 0.000027 11.682285 -1.565534 0.705073 9.119079 0.000005 -0.000001 11.746689 -0.377450 0.938691 7.072015 -0.000010 -0.000024 17.658260 -3.953689 -11.016655 4.508830 0.000000 0.000029 5.101504 0.244872 -1.035896 -3.622467 0.000014 -0.000008 5.101520 -1.063511 -0.025862 -13.805232 0.000008 0.000003 11.655066 -0.000000 -0.000001 0.000000 -2.625369 0.000023 11.175220 16.503760 -88.959737 0.835015 -0.000004 -0.000011 10.434696 -52.454012 -43.511843 57.397672 0.000000 -0.000015 29.628422 24.831544 0.392403 31.438678 -0.000008 0.000040 22.857567 21.809940 0.572802 -2.043829 -2.867310 -2.944229 3.959518 31.513414 -20.692560 46.493951 -0.000008 -0.000008 3.350372 -20.319461 10.574185 -35.376429 0.000000 -0.000031 3.756512 -13.413380 8.714991 -24.113155 -0.000029 -0.000001 3.147297 0.000000 -0.000001 0.000001 -0.086731 -2.345265 10.030899 -20.408586 -40.953111 10.956232 0.000010 0.000015 4.061081 -0.715830 -29.657730 4.590050 0.000014 -0.000010 3.248886 -1.215825 -29.657730 4.590043 -0.000002 -0.000000 2.639711 0.000001 0.000000 -0.000002 0.104103 -0.006785 9.502956 -13.331273 -40.398414 7.824478 -0.000001 -0.000011 4.568699 0.068038 -29.042576 1.667596 0.000007 0.000021 3.654963 -0.431955 -29.042538 1.667607 -0.000003 -0.000003 2.741233 -0.000000 -0.000001 -0.000001 0.086757 2.267474 8.921677 -3.617634 -44.815887 6.130370 -0.000008 0.000012 4.061090 -0.396135 -31.454643 -2.144165 0.000002 -0.000024 3.654970 0.603866 -31.454657 -2.144162 -0.000007 0.000005 2.741244 -0.000001 0.000001 -0.000001 -0.173500 4.467260 7.976968 8.385029 -46.894948 1.872115 0.000004 -0.000026 3.350399 -0.079332 -31.422931 -6.820358 -0.000048 -0.000027 2.842758 1.920690 -31.422801 -6.820359 -0.000009 -0.000003 2.639725 0.000000 -0.000000 -0.000000 0.000006 0.000023 -0.000036 0.000005 0.000002 0.000001 -0.000007 0.000009 -0.000022 -0.000001 -0.000001 -0.000001 2.625402 -0.000020 11.175219 -13.082360 86.322656 -0.404860 -0.000038 0.000004 10.813606 46.172803 50.081276 50.886504 -0.000074 -0.000046 28.724743 -6.965403 -0.784305 42.291148 0.644360 0.328886 25.716164 7.739211 -18.132376 -8.581567 2.867202 -2.944366 3.959518 -32.223449 25.431957 39.988394 0.000000 -0.000031 3.350471 30.794857 -10.799509 -52.108278 -0.000076 0.000008 3.756500 20.423031 -10.591298 -35.542901 -0.000020 -0.000062 3.100011 0.000000 0.000001 -0.000000 0.086723 -2.345253 10.030917 5.167215 74.681336 -5.463064 0.000000 0.000000 4.061180 -4.808690 52.801290 -10.670706 -0.000015 0.000029 3.248932 -5.308733 52.801303 -10.670727 -0.000041 -0.000011 2.639711 0.000001 0.000002 0.000001 -0.104179 -0.006802 9.502930 19.757041 71.714124 13.617514 0.000017 -0.000089 4.568758 -1.291658 51.205194 -3.737995 -0.000002 -0.000087 3.655039 -1.791642 51.205214 -3.738027 -0.000049 0.000000 2.741272 -0.000000 -0.000001 -0.000002 -0.086823 2.267435 8.921726 44.084459 69.410104 42.471923 -0.000019 0.000006 4.061123 1.249926 52.457758 4.564839 -0.000007 -0.000028 3.655031 2.249945 52.457782 4.564851 -0.000038 -0.000007 2.741257 -0.000000 -0.000002 0.000000 0.173484 4.467194 7.976952 51.891502 60.943169 54.910712 -0.000042 0.000010 3.350426 4.168196 49.727725 13.263529 -0.000011 -0.000010 2.842796 6.168209 49.727759 13.263558 -0.000039 0.000004 2.639706 -0.000000 0.000002 -0.000002 -0.000019 0.000014 -0.000026 -0.000002 0.000001 -0.000001 0.000000 -0.000016 -0.000000 0.000002 0.000001 0.000002 -11.289902 0.000052 0.000003 -8.509477 -1.907851 -4.053085 0.000038 0.000061 -38.200317 -0.105928 0.059750 29.152504 -0.000004 0.000010 -39.900860 -11.103562 0.929615 9.002421 -0.000007 -15.261741 0.000026 1.076145 0.343872 -17.113795 -0.000002 -7.370665 -0.000001 -0.000000 -0.000000 0.000000 0.000003 0.000001 0.000001 -0.000000 0.000000 0.000002 0.000026 -0.000003 -0.000004 0.000000 -0.000000 0.000000 11.315659 0.000010 0.000001 -13.177392 0.272287 -11.872727 -0.000007 0.000058 -38.200314 -0.143449 0.104020 35.947712 0.000007 -0.000016 -39.900856 10.877419 -1.612907 8.614737 0.000029 -15.261660 0.000024 0.113061 -0.454783 -22.347076 -0.000001 -7.539980 -0.000000 0.000000 -0.000001 -0.000000 -0.000014 0.000004 0.000001 -0.000001 -0.000000 0.000000 0.000001 0.000001 -0.000005 -0.000000 -0.000000 -0.000001 
